<svg width="34" height="36" viewBox="0 0 34 36" fill="none" xmlns="http://www.w3.org/2000/svg">
<path d="M5.28563 27.375H10.829C11.4873 27.375 12.0417 26.8204 12.0417 26.1618V23.1116C12.0417 22.4878 11.5912 22.0372 11.0023 21.9332V20.5817C11.0023 18.9526 9.68568 17.6354 8.0573 17.6354C6.42891 17.6354 5.11234 18.9526 5.11234 20.5817V21.9334C4.5234 22.0374 4.07292 22.4881 4.07292 23.1118V26.162C4.07316 26.8552 4.59274 27.375 5.28563 27.375V27.375ZM8.57685 25.6074C8.61141 25.7459 8.50749 25.8847 8.36902 25.8847H7.74553C7.60705 25.8847 7.5029 25.7462 7.53769 25.6074L7.74553 24.8449C7.5029 24.7063 7.32986 24.4982 7.32986 24.1862C7.32986 23.7704 7.67641 23.4583 8.05753 23.4583C8.4732 23.4583 8.7852 23.805 8.7852 24.1862C8.7852 24.4636 8.61193 24.7061 8.36954 24.8449L8.57685 25.6074ZM7.01788 20.5817C7.01788 20.0271 7.46834 19.5418 8.0573 19.5418C8.61168 19.5418 9.09671 19.9925 9.09671 20.5817V21.8988H7.01788V20.5817Z" fill="#444444"/>
<path d="M17 0C12.0294 0 8 4.02943 8 9C8 13.9706 12.0294 18 17 18C21.9706 18 26 13.9706 26 9C26 4.02943 21.9706 0 17 0ZM17 1.80804C17.4308 1.80804 17.8614 1.85138 18.2857 1.92858V13.1786C17.4886 12.7221 16.5114 12.7221 15.7143 13.1786V1.92858C16.1386 1.85138 16.5692 1.80804 17 1.80804V1.80804ZM17 14.1428C17.7071 14.1428 18.2857 14.7214 18.2857 15.4285C18.2857 16.1357 17.7071 16.7142 17 16.7142C16.2929 16.7142 15.7143 16.1357 15.7143 15.4285C15.7143 14.7214 16.2929 14.1428 17 14.1428Z" fill="#C3372C"/>
<path d="M32.9281 8.90656H28.5793V11.4214H31.8194V30.0063H2.1803V11.4214H5.66001V8.90656H1.07161C0.480243 8.90656 0 9.46078 0 10.1426V34.0557C0 34.7378 0.480514 35.2917 1.07161 35.2917H32.9281C33.5195 35.2917 33.9997 34.7374 33.9997 34.0557L34 10.1426C34 9.46047 33.5195 8.90656 32.9281 8.90656ZM16.9999 33.7148C16.5194 33.7148 16.1128 33.2459 16.1128 32.6917C16.1128 32.1375 16.5194 31.6686 16.9999 31.6686C17.4804 31.6686 17.8869 32.1375 17.8869 32.6917C17.8869 33.2459 17.4804 33.7148 16.9999 33.7148Z" fill="#444444"/>
<path d="M18.0332 22.7992C17.9314 22.4611 17.5583 22.2924 17.219 22.3937L16.4048 22.6641V21.8192C16.4048 21.4812 16.1334 21.1771 15.7603 21.1771C15.421 21.1771 15.1157 21.4475 15.1157 21.8192L15.116 22.6641L14.3018 22.3937C13.9625 22.2923 13.6235 22.4614 13.4876 22.7992C13.3859 23.1372 13.5556 23.475 13.8946 23.6103L14.7088 23.8807L14.2001 24.5905C13.9966 24.8609 14.0645 25.2663 14.3356 25.4691C14.4374 25.5367 14.5732 25.6042 14.7088 25.6042C14.9123 25.6042 15.1158 25.5028 15.2175 25.3338L15.7262 24.624L16.2349 25.3338C16.3705 25.5028 16.5402 25.6042 16.7437 25.6042C16.8792 25.6042 17.0151 25.5705 17.1168 25.4691C17.3882 25.2664 17.4561 24.8609 17.2524 24.5905L16.812 23.8807L17.6262 23.6103C17.9653 23.4752 18.1349 23.1372 18.0332 22.7992H18.0332Z" fill="#444444"/>
<path d="M19.7425 23.6103L20.5694 23.8807L20.0527 24.5905C19.8461 24.8609 19.915 25.2663 20.1905 25.4691C20.2938 25.5367 20.4317 25.6042 20.5694 25.6042C20.7761 25.6042 20.9828 25.5028 21.0861 25.3338L21.6028 24.624L22.1195 25.3338C22.2572 25.5028 22.4295 25.6042 22.6362 25.6042C22.7739 25.6042 22.9118 25.5705 23.0152 25.4691C23.2908 25.2664 23.3598 24.8609 23.1529 24.5905L22.6362 23.8807L23.4631 23.6103C23.8077 23.5089 23.9798 23.1372 23.8764 22.7992C23.7731 22.4611 23.3941 22.2924 23.0495 22.3937L22.2918 22.6641V21.8192C22.2918 21.4812 22.0162 21.1771 21.6372 21.1771C21.2926 21.1771 20.9825 21.4475 20.9825 21.8192L20.9828 22.6641L20.1559 22.3937C19.8112 22.2923 19.4669 22.4614 19.3289 22.7992C19.2256 23.1372 19.4325 23.4752 19.7425 23.6103H19.7425Z" fill="#444444"/>
<path d="M28.3141 21.8192C28.3141 21.4812 28.0386 21.1771 27.6598 21.1771C27.3154 21.1771 27.0055 21.4475 27.0055 21.8192V22.6641L26.1791 22.3937C25.8347 22.2923 25.4905 22.4614 25.3527 22.7992C25.2494 23.1372 25.4216 23.475 25.7658 23.6103L26.5922 23.8807L26.0758 24.5905C25.8693 24.8609 25.9382 25.2663 26.2135 25.4691C26.3167 25.5367 26.4546 25.6042 26.5922 25.6042C26.7988 25.6042 27.0053 25.5028 27.1086 25.3338L27.625 24.624L28.1414 25.3338C28.279 25.5028 28.4512 25.6042 28.6578 25.6042C28.7954 25.6042 28.9332 25.5705 29.0365 25.4691C29.312 25.2664 29.3809 24.8609 29.1742 24.5905L28.6578 23.8807L29.4842 23.6103C29.8286 23.5089 30.0006 23.1372 29.8973 22.7992C29.794 22.4611 29.4153 22.2924 29.0709 22.3937L28.314 22.6641L28.3141 21.8192Z" fill="#444444"/>
</svg>
